# xmcd
#
# Track frame offsets:
#	150
#	82518
#	114174
#	170373
#	232565
#	290341
#	315144
#
# Disc length: 4573 seconds
#
# Revision: 1
# Processed by: cddbd v1.5.2PL0 Copyright (c) Steve Scherf et al.
# Submitted via: audiograbber 1.83.01
#
DISCID=3811db07
DTITLE=Grateful Dead - 79-10-25 Veterans Memorial Coliseum, New Haven CT
DYEAR=1900
DGENRE=
TTITLE0=Shakedown Street
TTITLE1=Passenger
TTITLE2=Friend Of The Devil
TTITLE3=Estimated Prophet
TTITLE4=Eyes Of The World
TTITLE5=Space
TTITLE6=Drums
EXTD=
EXTT0=
EXTT1=
EXTT2=
EXTT3=
EXTT4=
EXTT5=
EXTT6=
PLAYORDER=
